<svg width="27" height="28" viewBox="0 0 27 28" fill="none" xmlns="http://www.w3.org/2000/svg">
<path fill-rule="evenodd" clip-rule="evenodd" d="M11.6231 2.29774L9.63779 2.89276L7.83237 1.33101C7.7418 1.25266 7.61092 1.24541 7.51251 1.31328L5.34867 2.80567C5.24553 2.8768 5.20525 3.01148 5.25196 3.12893L6.07581 5.20051L4.69937 6.79759L2.35688 6.5029C2.25128 6.48962 2.1482 6.5419 2.096 6.63616C1.93372 6.92918 1.58111 7.57695 1.36832 8.0504C1.26487 8.28058 1.17137 8.50628 1.09095 8.71008C0.330333 10.4544 -0.0354565 12.2906 0.00270479 14.2905C0.0554572 17.0551 0.913426 19.7417 2.46812 22.0106C4.02281 24.2795 6.20439 26.0287 8.737 27.0371C10.6098 27.7828 12.6124 28.0987 14.6031 27.9732C14.7407 27.9694 14.8699 27.9631 14.9819 27.9538C15.4879 27.9115 16.1506 27.7995 16.4931 27.738C16.532 27.7311 16.5683 27.7168 16.6006 27.6969C16.6325 27.69 16.6644 27.683 16.6963 27.6759L16.6845 27.6208C16.7186 27.5763 16.7413 27.5222 16.7486 27.4633L16.997 25.4563L19.0293 24.6473L20.4086 25.9843C20.515 26.0874 20.6771 26.1028 20.8003 26.0214L23.2283 24.4202C23.3554 24.3364 23.4065 24.173 23.3504 24.03L22.5009 21.8644L23.7519 20.0981L25.8345 20.1476C25.9378 20.1501 26.0351 20.1012 26.0874 20.0106C26.244 19.7393 26.5772 19.0657 26.8219 17.9014C26.9343 17.3669 26.9777 16.8168 26.9928 16.3958H26.9938V16.3654C27.0077 15.9477 26.9938 15.6647 26.9938 15.6647L26.9938 15.401H21.1676L20.1 14.5676H26.9938V13.8685C26.9938 13.6904 26.8517 13.5459 26.6765 13.5459H18.9276C18.6647 13.5459 18.4516 13.7626 18.4516 14.0299V14.0836C18.4516 14.2137 18.5021 14.3318 18.5842 14.4187L18.5838 14.4197C18.5838 14.4197 20.596 16.2994 20.6499 16.2984L20.651 16.2983C20.7307 16.3595 20.83 16.3958 20.9376 16.3958H23.2716C23.1723 16.8591 23.0123 17.4703 22.7761 18.0088C22.5956 18.4203 22.4217 18.7849 22.2416 19.1187C21.8489 19.8086 21.3769 20.4523 20.8328 21.0348C20.8274 21.0405 20.822 21.0463 20.8166 21.0521C20.5871 21.2858 20.3326 21.5229 20.0453 21.7731C19.9266 21.8764 19.81 21.9743 19.695 22.0672C18.8451 22.7207 17.89 23.2289 16.8833 23.5799C16.5892 23.6731 16.2794 23.7583 15.9471 23.8412C14.4537 24.2138 13.0263 24.1282 12.7907 24.1106C11.8905 24.0318 11.0013 23.8211 10.1383 23.4747C8.32641 22.7475 6.76721 21.4821 5.65783 19.8384C4.54845 18.1948 3.93872 16.2468 3.90574 14.2408C3.8767 12.4742 4.2961 10.7325 5.11685 9.18613C5.23737 8.96357 5.37158 8.7355 5.52043 8.50746C5.97232 7.81516 6.47411 7.19663 7.00679 6.6621C7.82948 5.8612 8.78345 5.20706 9.83015 4.73361C10.3002 4.521 10.7834 4.34735 11.2751 4.21321C11.8325 4.082 12.4223 4.00495 13.1106 3.9529C14.024 3.88382 15.5701 4.09819 15.5701 4.09819L16.1806 0.622779C16.2079 0.467592 16.0985 0.321971 15.9441 0.307754L12.613 0.00110395C12.4918 -0.0100586 12.3787 0.0643781 12.3391 0.181421L11.6231 2.29774ZM12.8554 25.4888L12.9148 26.3212C11.4984 26.225 10.4875 25.9626 9.32875 25.5012C7.09497 24.6117 5.17079 23.0689 3.79953 21.0677C2.42828 19.0665 1.67154 16.6969 1.62502 14.2585C1.59944 12.9182 1.78909 11.5901 2.17998 10.3248L3.04843 10.8007C2.72607 11.9212 2.56914 13.0909 2.58853 14.2705C2.62592 16.5448 3.31722 18.7534 4.57501 20.6169C5.83279 22.4804 7.60057 23.9151 9.6548 24.7396C10.6848 25.153 11.7636 25.4036 12.8554 25.4888ZM4.09111 8.76025C4.09111 9.17601 3.75957 9.51305 3.3506 9.51305C2.94163 9.51305 2.6101 9.17601 2.6101 8.76025C2.6101 8.34449 2.94163 8.00745 3.3506 8.00745C3.75957 8.00745 4.09111 8.34449 4.09111 8.76025Z" fill="#110E95"/>
</svg>
